<svg id="visual" viewBox="0 0 900 600" width="900" height="600" xmlns="http://www.w3.org/2000/svg" xmlns:xlink="http://www.w3.org/1999/xlink" version="1.1"><g stroke-width="1" stroke-linejoin="bevel"><path d="M513 324L396 395L513 382Z" fill="#111f2d" stroke="#111f2d"></path><path d="M513 324L375 278L396 395Z" fill="#415a77" stroke="#415a77"></path><path d="M396 395L424 481L513 382Z" fill="#0c1926" stroke="#0c1926"></path><path d="M625 425L573 270L513 324Z" fill="#30455d" stroke="#30455d"></path><path d="M476 168L372 213L375 278Z" fill="#30455d" stroke="#30455d"></path><path d="M375 278L302 378L396 395Z" fill="#25384d" stroke="#25384d"></path><path d="M396 395L311 526L424 481Z" fill="#3b536e" stroke="#3b536e"></path><path d="M424 481L527 484L513 382Z" fill="#2a3f55" stroke="#2a3f55"></path><path d="M513 382L625 425L513 324Z" fill="#415a77" stroke="#415a77"></path><path d="M476 168L375 278L513 324Z" fill="#3b536e" stroke="#3b536e"></path><path d="M375 278L275 317L302 378Z" fill="#415a77" stroke="#415a77"></path><path d="M301 204L275 317L375 278Z" fill="#2a3f55" stroke="#2a3f55"></path><path d="M573 270L476 168L513 324Z" fill="#111f2d" stroke="#111f2d"></path><path d="M527 484L625 425L513 382Z" fill="#2a3f55" stroke="#2a3f55"></path><path d="M528 600L576 496L527 484Z" fill="#1b2b3d" stroke="#1b2b3d"></path><path d="M527 484L576 496L625 425Z" fill="#2a3f55" stroke="#2a3f55"></path><path d="M372 129L301 204L372 213Z" fill="#25384d" stroke="#25384d"></path><path d="M372 213L301 204L375 278Z" fill="#111f2d" stroke="#111f2d"></path><path d="M302 378L311 526L396 395Z" fill="#162535" stroke="#162535"></path><path d="M424 481L421 600L527 484Z" fill="#111f2d" stroke="#111f2d"></path><path d="M206 524L311 526L302 378Z" fill="#2a3f55" stroke="#2a3f55"></path><path d="M671 503L672 407L625 425Z" fill="#364c66" stroke="#364c66"></path><path d="M625 425L672 407L573 270Z" fill="#3b536e" stroke="#3b536e"></path><path d="M694 284L620 199L573 270Z" fill="#30455d" stroke="#30455d"></path><path d="M573 270L620 199L476 168Z" fill="#415a77" stroke="#415a77"></path><path d="M225 284L217 376L275 317Z" fill="#111f2d" stroke="#111f2d"></path><path d="M275 317L217 376L302 378Z" fill="#162535" stroke="#162535"></path><path d="M301 204L225 284L275 317Z" fill="#3b536e" stroke="#3b536e"></path><path d="M476 168L372 129L372 213Z" fill="#364c66" stroke="#364c66"></path><path d="M301 204L171 222L225 284Z" fill="#162535" stroke="#162535"></path><path d="M503 93L372 129L476 168Z" fill="#30455d" stroke="#30455d"></path><path d="M311 526L421 600L424 481Z" fill="#364c66" stroke="#364c66"></path><path d="M672 407L694 284L573 270Z" fill="#203245" stroke="#203245"></path><path d="M421 600L528 600L527 484Z" fill="#2a3f55" stroke="#2a3f55"></path><path d="M576 496L671 503L625 425Z" fill="#111f2d" stroke="#111f2d"></path><path d="M620 199L503 93L476 168Z" fill="#415a77" stroke="#415a77"></path><path d="M573 600L671 503L576 496Z" fill="#0c1926" stroke="#0c1926"></path><path d="M672 407L779 430L694 284Z" fill="#2a3f55" stroke="#2a3f55"></path><path d="M528 600L573 600L576 496Z" fill="#3b536e" stroke="#3b536e"></path><path d="M694 284L689 198L620 199Z" fill="#1b2b3d" stroke="#1b2b3d"></path><path d="M620 199L588 68L503 93Z" fill="#3b536e" stroke="#3b536e"></path><path d="M216 98L268 124L300 0Z" fill="#30455d" stroke="#30455d"></path><path d="M372 129L268 124L301 204Z" fill="#3b536e" stroke="#3b536e"></path><path d="M217 376L206 524L302 378Z" fill="#0c1926" stroke="#0c1926"></path><path d="M311 526L282 600L421 600Z" fill="#415a77" stroke="#415a77"></path><path d="M206 524L282 600L311 526Z" fill="#162535" stroke="#162535"></path><path d="M268 124L171 222L301 204Z" fill="#30455d" stroke="#30455d"></path><path d="M225 284L88 380L217 376Z" fill="#415a77" stroke="#415a77"></path><path d="M217 376L111 517L206 524Z" fill="#203245" stroke="#203245"></path><path d="M715 103L588 68L620 199Z" fill="#162535" stroke="#162535"></path><path d="M300 0L268 124L372 129Z" fill="#203245" stroke="#203245"></path><path d="M573 600L671 600L671 503Z" fill="#364c66" stroke="#364c66"></path><path d="M671 503L779 430L672 407Z" fill="#415a77" stroke="#415a77"></path><path d="M206 524L223 600L282 600Z" fill="#111f2d" stroke="#111f2d"></path><path d="M809 518L779 430L671 503Z" fill="#30455d" stroke="#30455d"></path><path d="M694 284L788 268L689 198Z" fill="#30455d" stroke="#30455d"></path><path d="M382 0L372 129L503 93Z" fill="#25384d" stroke="#25384d"></path><path d="M268 124L216 98L171 222Z" fill="#1b2b3d" stroke="#1b2b3d"></path><path d="M779 430L788 268L694 284Z" fill="#111f2d" stroke="#111f2d"></path><path d="M689 198L715 103L620 199Z" fill="#203245" stroke="#203245"></path><path d="M588 68L510 0L503 93Z" fill="#30455d" stroke="#30455d"></path><path d="M510 0L382 0L503 93Z" fill="#2a3f55" stroke="#2a3f55"></path><path d="M72 294L88 380L225 284Z" fill="#1b2b3d" stroke="#1b2b3d"></path><path d="M206 524L111 517L223 600Z" fill="#203245" stroke="#203245"></path><path d="M72 294L225 284L171 222Z" fill="#203245" stroke="#203245"></path><path d="M783 117L715 103L689 198Z" fill="#25384d" stroke="#25384d"></path><path d="M588 68L608 0L510 0Z" fill="#162535" stroke="#162535"></path><path d="M88 380L111 517L217 376Z" fill="#111f2d" stroke="#111f2d"></path><path d="M79 230L72 294L171 222Z" fill="#30455d" stroke="#30455d"></path><path d="M0 481L74 600L111 517Z" fill="#415a77" stroke="#415a77"></path><path d="M382 0L300 0L372 129Z" fill="#415a77" stroke="#415a77"></path><path d="M674 0L608 0L588 68Z" fill="#0c1926" stroke="#0c1926"></path><path d="M79 118L79 230L171 222Z" fill="#25384d" stroke="#25384d"></path><path d="M79 118L171 222L216 98Z" fill="#203245" stroke="#203245"></path><path d="M788 268L814 205L689 198Z" fill="#25384d" stroke="#25384d"></path><path d="M900 268L814 205L788 268Z" fill="#162535" stroke="#162535"></path><path d="M777 600L809 518L671 503Z" fill="#415a77" stroke="#415a77"></path><path d="M779 430L900 388L788 268Z" fill="#203245" stroke="#203245"></path><path d="M814 205L783 117L689 198Z" fill="#162535" stroke="#162535"></path><path d="M715 103L674 0L588 68Z" fill="#25384d" stroke="#25384d"></path><path d="M671 600L777 600L671 503Z" fill="#415a77" stroke="#415a77"></path><path d="M786 0L674 0L715 103Z" fill="#1b2b3d" stroke="#1b2b3d"></path><path d="M300 0L195 0L216 98Z" fill="#364c66" stroke="#364c66"></path><path d="M195 0L79 118L216 98Z" fill="#25384d" stroke="#25384d"></path><path d="M79 230L0 320L72 294Z" fill="#2a3f55" stroke="#2a3f55"></path><path d="M0 481L111 517L88 380Z" fill="#415a77" stroke="#415a77"></path><path d="M111 517L74 600L223 600Z" fill="#2a3f55" stroke="#2a3f55"></path><path d="M900 521L900 388L809 518Z" fill="#1b2b3d" stroke="#1b2b3d"></path><path d="M809 518L900 388L779 430Z" fill="#25384d" stroke="#25384d"></path><path d="M814 205L900 171L783 117Z" fill="#3b536e" stroke="#3b536e"></path><path d="M0 176L0 320L79 230Z" fill="#415a77" stroke="#415a77"></path><path d="M72 294L0 320L88 380Z" fill="#162535" stroke="#162535"></path><path d="M0 320L0 424L88 380Z" fill="#111f2d" stroke="#111f2d"></path><path d="M900 388L900 268L788 268Z" fill="#111f2d" stroke="#111f2d"></path><path d="M0 424L0 481L88 380Z" fill="#1b2b3d" stroke="#1b2b3d"></path><path d="M900 600L900 521L809 518Z" fill="#25384d" stroke="#25384d"></path><path d="M79 118L0 176L79 230Z" fill="#0c1926" stroke="#0c1926"></path><path d="M0 94L0 176L79 118Z" fill="#111f2d" stroke="#111f2d"></path><path d="M900 268L900 171L814 205Z" fill="#2a3f55" stroke="#2a3f55"></path><path d="M783 117L786 0L715 103Z" fill="#25384d" stroke="#25384d"></path><path d="M900 85L786 0L783 117Z" fill="#415a77" stroke="#415a77"></path><path d="M777 600L900 600L809 518Z" fill="#30455d" stroke="#30455d"></path><path d="M0 481L0 600L74 600Z" fill="#364c66" stroke="#364c66"></path><path d="M195 0L76 0L79 118Z" fill="#111f2d" stroke="#111f2d"></path><path d="M76 0L0 94L79 118Z" fill="#111f2d" stroke="#111f2d"></path><path d="M900 171L900 85L783 117Z" fill="#415a77" stroke="#415a77"></path><path d="M900 85L900 0L786 0Z" fill="#415a77" stroke="#415a77"></path><path d="M76 0L0 0L0 94Z" fill="#203245" stroke="#203245"></path></g></svg>